<svg xmlns="http://www.w3.org/2000/svg" xmlns:xlink="http://www.w3.org/1999/xlink" width="165" height="72" viewBox="0 0 165 72">
  <defs>
    <clipPath id="clip-path">
      <rect id="Rectangle_646" data-name="Rectangle 646" width="165" height="72" transform="translate(-0.073)" fill="#fff" stroke="#707070" stroke-width="1"/>
    </clipPath>
  </defs>
  <g id="Mask_Group_57" data-name="Mask Group 57" transform="translate(0.073)" clip-path="url(#clip-path)">
    <g id="books_2_" data-name="books (2)" transform="translate(0.268 2.162)">
      <path id="Path_359" data-name="Path 359" d="M145.728.81H131.465V67.348h14.262Zm-3.554,61.779h-7.124a1.19,1.19,0,1,1,0-2.38h7.124a1.19,1.19,0,0,1,0,2.38Zm0-4.744h-7.124a1.19,1.19,0,1,1,0-2.38h7.124a1.19,1.19,0,0,1,0,2.38Zm0-45.152h-7.124a1.19,1.19,0,1,1,0-2.38h7.124a1.19,1.19,0,0,1,0,2.38Zm0-4.759h-7.124a1.19,1.19,0,1,1,0-2.38h7.124a1.19,1.19,0,0,1,0,2.38Z" transform="translate(-16.562 -0.096)" fill="#fff"/>
      <path id="Path_360" data-name="Path 360" d="M112.6,67.348h14.262V.81H112.6Zm3.569-61.779H123.3a1.19,1.19,0,1,1,0,2.38h-7.124a1.19,1.19,0,1,1,0-2.38Zm0,4.744H123.3a1.19,1.19,0,1,1,0,2.38h-7.124a1.19,1.19,0,1,1,0-2.38Zm0,45.152H123.3a1.19,1.19,0,1,1,0,2.38h-7.124a1.19,1.19,0,1,1,0-2.38Zm0,4.759H123.3a1.19,1.19,0,1,1,0,2.38h-7.124a1.19,1.19,0,1,1,0-2.38Z" transform="translate(-14.329 -0.096)" fill="#fff"/>
      <path id="Path_361" data-name="Path 361" d="M152.991,3.688,170.2,67.966l13.772-3.688L166.762,0Zm3.822,5.131a1.2,1.2,0,0,1,.833-1.457l6.886-1.844a1.174,1.174,0,0,1,1.19.283,1.192,1.192,0,0,1-.595,2.023l-6.886,1.844a1.185,1.185,0,0,1-1.428-.848Zm23.335,50.328a1.2,1.2,0,0,1-.833,1.457l-6.886,1.844a1.132,1.132,0,0,1-.312.045,1.187,1.187,0,0,1-1.175-1.026,1.2,1.2,0,0,1,.877-1.309l6.886-1.844A1.179,1.179,0,0,1,180.147,59.147Zm-9.578-3.584,6.886-1.844a1.175,1.175,0,0,1,1.443.848,1.207,1.207,0,0,1-.833,1.457l-6.886,1.844a1.132,1.132,0,0,1-.312.045,1.187,1.187,0,0,1-1.175-1.026,1.21,1.21,0,0,1,.878-1.324Zm-3.346-44.617a1.2,1.2,0,0,1-.833,1.457L159.5,14.248a1.175,1.175,0,0,1-1.443-.848,1.207,1.207,0,0,1,.833-1.457l6.886-1.844a1.144,1.144,0,0,1,.907.119A1.219,1.219,0,0,1,167.224,10.946Z" transform="translate(-19.111)" fill="#fff"/>
      <path id="Path_362" data-name="Path 362" d="M108.6.843H94.335V67.382H108.6Zm-3.569,61.779H97.9a1.19,1.19,0,0,1,0-2.38h7.124a1.19,1.19,0,0,1,0,2.38Zm0-4.744H97.9a1.19,1.19,0,0,1,0-2.38h7.124a1.19,1.19,0,0,1,0,2.38Zm0-45.152H97.9a1.19,1.19,0,0,1,0-2.38h7.124a1.19,1.19,0,0,1,0,2.38Zm0-4.759H97.9a1.19,1.19,0,0,1,0-2.38h7.124a1.19,1.19,0,0,1,0,2.38Z" transform="translate(-12.166 -0.1)" fill="#fff"/>
      <path id="Path_363" data-name="Path 363" d="M75.458,67.382H89.72V.843H75.458ZM79.027,5.588h7.124a1.19,1.19,0,1,1,0,2.38H79.027a1.19,1.19,0,1,1,0-2.38Zm0,4.759h7.124a1.19,1.19,0,1,1,0,2.38H79.027a1.19,1.19,0,1,1,0-2.38Zm0,45.152h7.124a1.19,1.19,0,1,1,0,2.38H79.027a1.19,1.19,0,1,1,0-2.38Zm0,4.744h7.124a1.19,1.19,0,1,1,0,2.38H79.027a1.19,1.19,0,1,1,0-2.38Z" transform="translate(-9.931 -0.1)" fill="#fff"/>
      <path id="Path_364" data-name="Path 364" d="M57.07,67.4H71.332V.86H57.07ZM60.624,5.6h7.124a1.19,1.19,0,0,1,0,2.38H60.624a1.19,1.19,0,1,1,0-2.38Zm0,4.759h7.124a1.19,1.19,0,0,1,0,2.38H60.624a1.19,1.19,0,1,1,0-2.38Zm0,45.152h7.124a1.19,1.19,0,0,1,0,2.38H60.624a1.19,1.19,0,1,1,0-2.38Zm0,4.744h7.124a1.19,1.19,0,0,1,0,2.38H60.624a1.19,1.19,0,1,1,0-2.38Z" transform="translate(-7.754 -0.102)" fill="#fff"/>
      <path id="Path_365" data-name="Path 365" d="M52.658.86H38.4V67.4H52.658ZM49.088,62.655H41.965a1.19,1.19,0,0,1,0-2.38h7.124a1.19,1.19,0,0,1,0,2.38Zm0-4.759H41.965a1.19,1.19,0,0,1,0-2.38h7.124a1.19,1.19,0,1,1,0,2.38Zm0-45.152H41.965a1.19,1.19,0,0,1,0-2.38h7.124a1.19,1.19,0,1,1,0,2.38Zm0-4.744H41.965a1.19,1.19,0,0,1,0-2.38h7.124a1.19,1.19,0,1,1,0,2.38Z" transform="translate(-5.543 -0.102)" fill="#fff"/>
      <path id="Path_366" data-name="Path 366" d="M19.535,67.414H33.8V.86H19.535V67.414ZM23.09,5.619h7.124a1.19,1.19,0,0,1,0,2.38H23.09a1.19,1.19,0,1,1,0-2.38Zm0,4.759h7.124a1.19,1.19,0,0,1,0,2.38H23.09a1.19,1.19,0,0,1,0-2.38Zm0,45.152h7.124a1.19,1.19,0,0,1,0,2.38H23.09a1.19,1.19,0,1,1,0-2.38Zm0,4.744h7.124a1.19,1.19,0,0,1,0,2.38H23.09a1.19,1.19,0,0,1,0-2.38Z" transform="translate(-3.309 -0.102)" fill="#fff"/>
      <path id="Path_367" data-name="Path 367" d="M1.13,67.43H15.393V.877H1.13ZM4.685,5.636h7.124a1.19,1.19,0,0,1,0,2.38H4.685a1.19,1.19,0,0,1,0-2.38Zm0,4.759h7.124a1.19,1.19,0,0,1,0,2.38H4.685a1.19,1.19,0,0,1,0-2.38Zm0,45.152h7.124a1.19,1.19,0,0,1,0,2.38H4.685a1.19,1.19,0,0,1,0-2.38Zm0,4.744h7.124a1.19,1.19,0,1,1,0,2.38H4.685a1.19,1.19,0,1,1,0-2.38Z" transform="translate(-1.13 -0.104)" fill="#fff"/>
    </g>
  </g>
</svg>
