<svg xmlns="http://www.w3.org/2000/svg" xmlns:xlink="http://www.w3.org/1999/xlink" width="165" height="72" viewBox="0 0 165 72">
  <defs>
    <clipPath id="clip-path">
      <rect id="Rectangle_657" data-name="Rectangle 657" width="165" height="72" transform="translate(542 2996)" fill="#fff" stroke="#707070" stroke-width="1"/>
    </clipPath>
  </defs>
  <g id="Mask_Group_67" data-name="Mask Group 67" transform="translate(-542 -2996)" clip-path="url(#clip-path)">
    <g id="books_4_" data-name="books (4)" transform="translate(585.31 2996)">
      <path id="Path_410" data-name="Path 410" d="M36.646.756H21.537V71.244H36.646ZM32.881,66.2H25.334a1.26,1.26,0,1,1,0-2.521h7.547a1.26,1.26,0,0,1,0,2.521Zm0-5.026H25.334a1.26,1.26,0,1,1,0-2.521h7.547a1.26,1.26,0,0,1,0,2.521Zm0-47.832H25.334a1.26,1.26,0,0,1,0-2.521h7.547a1.26,1.26,0,0,1,0,2.521Zm0-5.042H25.334a1.26,1.26,0,0,1,0-2.521h7.547a1.26,1.26,0,0,1,0,2.521Z" fill="#fff"/>
      <path id="Path_411" data-name="Path 411" d="M3.923,71.244H19.032V.756H3.923ZM7.7,5.8h7.547a1.26,1.26,0,0,1,0,2.521H7.7A1.26,1.26,0,0,1,7.7,5.8Zm0,5.026h7.547a1.26,1.26,0,1,1,0,2.521H7.7a1.26,1.26,0,1,1,0-2.521Zm0,47.832h7.547a1.26,1.26,0,1,1,0,2.521H7.7a1.26,1.26,0,1,1,0-2.521Zm0,5.042h7.547a1.26,1.26,0,0,1,0,2.521H7.7a1.26,1.26,0,0,1,0-2.521Z" fill="#fff"/>
      <path id="Path_412" data-name="Path 412" d="M41.625,3.907,59.869,72l14.589-3.907L56.214,0Zm4.065,5.435A1.271,1.271,0,0,1,46.572,7.8l7.31-1.954a1.244,1.244,0,0,1,1.26.3,1.263,1.263,0,0,1-.63,2.143l-7.295,1.954a1.264,1.264,0,0,1-1.528-.9ZM70.409,62.657a1.271,1.271,0,0,1-.882,1.544l-7.295,1.954a1.2,1.2,0,0,1-.331.047,1.257,1.257,0,0,1-1.245-1.087,1.274,1.274,0,0,1,.93-1.386l7.295-1.954A1.256,1.256,0,0,1,70.409,62.657Zm-10.146-3.8,7.295-1.954a1.244,1.244,0,0,1,1.528.9,1.278,1.278,0,0,1-.882,1.544L60.909,61.3a1.2,1.2,0,0,1-.331.047,1.257,1.257,0,0,1-1.245-1.087,1.282,1.282,0,0,1,.93-1.4ZM56.718,11.6a1.271,1.271,0,0,1-.882,1.544l-7.31,1.954A1.244,1.244,0,0,1,47,14.2a1.279,1.279,0,0,1,.882-1.544L55.174,10.7a1.212,1.212,0,0,1,.961.126A1.256,1.256,0,0,1,56.718,11.6Z" fill="#fff"/>
    </g>
  </g>
</svg>
