<svg xmlns="http://www.w3.org/2000/svg" xmlns:xlink="http://www.w3.org/1999/xlink" width="165" height="72" viewBox="0 0 165 72">
  <defs>
    <clipPath id="clip-path">
      <rect id="Rectangle_656" data-name="Rectangle 656" width="165" height="72" transform="translate(770 2997)" fill="#fff" stroke="#707070" stroke-width="1"/>
    </clipPath>
  </defs>
  <g id="Mask_Group_66" data-name="Mask Group 66" transform="translate(-770 -2997)" clip-path="url(#clip-path)">
    <g id="books_1_" data-name="books (1)" transform="translate(790.174 2997)">
      <path id="Path_404" data-name="Path 404" d="M85.723.756H70.614V71.244H85.723ZM81.941,66.2H74.395a1.26,1.26,0,0,1,0-2.521h7.547a1.26,1.26,0,0,1,0,2.521Zm0-5.026H74.395a1.26,1.26,0,0,1,0-2.521h7.547a1.26,1.26,0,0,1,0,2.521Zm0-47.832H74.395a1.26,1.26,0,0,1,0-2.521h7.547a1.26,1.26,0,0,1,0,2.521Zm0-5.042H74.395a1.26,1.26,0,0,1,0-2.521h7.547a1.26,1.26,0,0,1,0,2.521Z" fill="#fff"/>
      <path id="Path_405" data-name="Path 405" d="M53,71.244H68.109V.756H53ZM56.765,5.8h7.547a1.26,1.26,0,1,1,0,2.521H56.765a1.26,1.26,0,1,1,0-2.521Zm0,5.026h7.547a1.26,1.26,0,1,1,0,2.521H56.765a1.26,1.26,0,1,1,0-2.521Zm0,47.832h7.547a1.26,1.26,0,1,1,0,2.521H56.765a1.26,1.26,0,1,1,0-2.521Zm0,5.042h7.547a1.26,1.26,0,1,1,0,2.521H56.765a1.26,1.26,0,1,1,0-2.521Z" fill="#fff"/>
      <path id="Path_406" data-name="Path 406" d="M90.7,3.907,108.945,72l14.589-3.907L105.29,0Zm4.065,5.435A1.271,1.271,0,0,1,95.648,7.8l7.295-1.954a1.244,1.244,0,0,1,1.26.3,1.263,1.263,0,0,1-.63,2.143l-7.295,1.954a1.248,1.248,0,0,1-1.512-.9Zm24.7,53.315a1.271,1.271,0,0,1-.882,1.544l-7.295,1.954a1.2,1.2,0,0,1-.331.047,1.257,1.257,0,0,1-1.245-1.087,1.274,1.274,0,0,1,.93-1.386l7.295-1.954A1.242,1.242,0,0,1,119.47,62.657Zm-10.13-3.8,7.295-1.954a1.244,1.244,0,0,1,1.528.9,1.279,1.279,0,0,1-.882,1.544L109.985,61.3a1.2,1.2,0,0,1-.331.047,1.257,1.257,0,0,1-1.245-1.087,1.282,1.282,0,0,1,.93-1.4ZM105.794,11.6a1.271,1.271,0,0,1-.882,1.544l-7.295,1.954a1.244,1.244,0,0,1-1.528-.9,1.279,1.279,0,0,1,.882-1.544l7.295-1.954a1.212,1.212,0,0,1,.961.126A1.356,1.356,0,0,1,105.794,11.6Z" fill="#fff"/>
      <path id="Path_407" data-name="Path 407" d="M51.03.788H35.921V71.275H51.03ZM47.265,66.234H39.7a1.26,1.26,0,1,1,0-2.521h7.562a1.26,1.26,0,0,1,0,2.521Zm0-5.026H39.7a1.26,1.26,0,0,1,0-2.521h7.562a1.26,1.26,0,0,1,0,2.521Zm0-47.832H39.7a1.26,1.26,0,1,1,0-2.521h7.562a1.26,1.26,0,0,1,0,2.521Zm0-5.042H39.7a1.26,1.26,0,1,1,0-2.521h7.562a1.26,1.26,0,0,1,0,2.521Z" fill="#fff"/>
      <path id="Path_408" data-name="Path 408" d="M18.307,71.275H33.416V.788H18.307V71.275ZM22.088,5.814h7.547a1.26,1.26,0,0,1,0,2.521H22.088a1.26,1.26,0,0,1,0-2.521Zm0,5.042h7.547a1.26,1.26,0,0,1,0,2.521H22.088a1.26,1.26,0,0,1,0-2.521Zm0,47.832h7.547a1.26,1.26,0,0,1,0,2.521H22.088a1.26,1.26,0,0,1,0-2.521Zm0,5.026h7.547a1.26,1.26,0,1,1,0,2.521H22.088a1.26,1.26,0,0,1,0-2.521Z" fill="#fff"/>
      <path id="Path_409" data-name="Path 409" d="M1.119,71.291H16.228V.8H1.119ZM4.9,5.829h7.547a1.26,1.26,0,1,1,0,2.521H4.9a1.26,1.26,0,1,1,0-2.521Zm0,5.042h7.547a1.26,1.26,0,1,1,0,2.521H4.9a1.26,1.26,0,1,1,0-2.521ZM4.9,58.7h7.547a1.26,1.26,0,1,1,0,2.521H4.9a1.26,1.26,0,1,1,0-2.521Zm0,5.026h7.547a1.26,1.26,0,1,1,0,2.521H4.9a1.26,1.26,0,1,1,0-2.521Z" fill="#fff"/>
    </g>
  </g>
</svg>
