<svg xmlns="http://www.w3.org/2000/svg" xmlns:xlink="http://www.w3.org/1999/xlink" width="117" height="72" viewBox="0 0 117 72">
  <defs>
    <clipPath id="clip-path">
      <rect id="Rectangle_645" data-name="Rectangle 645" width="117" height="72" transform="translate(0.242)" fill="#fff" stroke="#707070" stroke-width="1"/>
    </clipPath>
  </defs>
  <g id="Mask_Group_56" data-name="Mask Group 56" transform="translate(-0.242)" clip-path="url(#clip-path)">
    <g id="books_1_" data-name="books (1)" transform="translate(-0.001 1.664)">
      <path id="Path_353" data-name="Path 353" d="M91.191.822H76.719V68.336H91.191ZM87.569,63.507H80.341a1.207,1.207,0,1,1,0-2.414h7.228a1.207,1.207,0,0,1,0,2.414Zm0-4.814H80.341a1.207,1.207,0,1,1,0-2.414h7.228a1.207,1.207,0,0,1,0,2.414Zm0-45.814H80.341a1.207,1.207,0,1,1,0-2.414h7.228a1.207,1.207,0,0,1,0,2.414Zm0-4.829H80.341a1.207,1.207,0,1,1,0-2.414h7.228a1.207,1.207,0,0,1,0,2.414Z" transform="translate(-10.155 -0.097)" fill="#fff"/>
      <path id="Path_354" data-name="Path 354" d="M57.582,68.336H72.054V.822H57.582ZM61.189,5.651h7.228a1.207,1.207,0,0,1,0,2.414H61.189a1.207,1.207,0,0,1,0-2.414Zm0,4.814h7.228a1.207,1.207,0,0,1,0,2.414H61.189a1.207,1.207,0,0,1,0-2.414Zm0,45.814h7.228a1.207,1.207,0,0,1,0,2.414H61.189a1.207,1.207,0,0,1,0-2.414Zm0,4.829h7.228a1.207,1.207,0,0,1,0,2.414H61.189a1.207,1.207,0,0,1,0-2.414Z" transform="translate(-7.889 -0.097)" fill="#fff"/>
      <path id="Path_355" data-name="Path 355" d="M98.543,3.742l17.475,65.221,13.974-3.742L112.517,0Zm3.893,5.206a1.217,1.217,0,0,1,.845-1.479L110.268,5.6a1.191,1.191,0,0,1,1.207.287,1.21,1.21,0,0,1-.6,2.052l-6.987,1.871a1.2,1.2,0,0,1-1.449-.86ZM126.1,60.015a1.217,1.217,0,0,1-.845,1.479l-6.987,1.871a1.148,1.148,0,0,1-.317.045,1.2,1.2,0,0,1-1.192-1.041,1.221,1.221,0,0,1,.89-1.328l6.987-1.871A1.19,1.19,0,0,1,126.1,60.015Zm-9.7-3.637,6.987-1.871a1.192,1.192,0,0,1,1.464.86A1.225,1.225,0,0,1,124,56.846l-6.987,1.871a1.149,1.149,0,0,1-.317.045,1.2,1.2,0,0,1-1.192-1.041,1.228,1.228,0,0,1,.89-1.343ZM113,11.107a1.217,1.217,0,0,1-.845,1.479l-6.987,1.871a1.192,1.192,0,0,1-1.464-.86,1.225,1.225,0,0,1,.845-1.479l6.987-1.871a1.161,1.161,0,0,1,.921.121A1.3,1.3,0,0,1,113,11.107Z" transform="translate(-12.739)" fill="#fff"/>
      <path id="Path_356" data-name="Path 356" d="M53.5.856H39.027V68.37H53.5ZM49.892,63.541H42.649a1.207,1.207,0,0,1,0-2.414h7.243a1.207,1.207,0,1,1,0,2.414Zm0-4.814H42.649a1.207,1.207,0,0,1,0-2.414h7.243a1.207,1.207,0,1,1,0,2.414Zm0-45.814H42.649a1.207,1.207,0,0,1,0-2.414h7.243a1.207,1.207,0,1,1,0,2.414Zm0-4.829H42.649a1.207,1.207,0,0,1,0-2.414h7.243a1.207,1.207,0,1,1,0,2.414Z" transform="translate(-5.692 -0.101)" fill="#fff"/>
      <path id="Path_357" data-name="Path 357" d="M19.89,68.37H34.362V.856H19.89V68.37Zm3.622-62.7H30.74a1.207,1.207,0,0,1,0,2.414H23.512a1.207,1.207,0,0,1,0-2.414Zm0,4.829H30.74a1.207,1.207,0,0,1,0,2.414H23.512a1.207,1.207,0,0,1,0-2.414Zm0,45.814H30.74a1.207,1.207,0,0,1,0,2.414H23.512a1.207,1.207,0,0,1,0-2.414Zm0,4.814H30.74a1.207,1.207,0,0,1,0,2.414H23.512a1.207,1.207,0,0,1,0-2.414Z" transform="translate(-3.426 -0.101)" fill="#fff"/>
      <path id="Path_358" data-name="Path 358" d="M1.215,68.387H15.687V.873H1.215Zm3.622-62.7h7.228a1.207,1.207,0,1,1,0,2.414H4.837a1.207,1.207,0,1,1,0-2.414Zm0,4.829h7.228a1.207,1.207,0,0,1,0,2.414H4.837a1.207,1.207,0,0,1,0-2.414Zm0,45.814h7.228a1.207,1.207,0,1,1,0,2.414H4.837a1.207,1.207,0,0,1,0-2.414Zm0,4.814h7.228a1.207,1.207,0,1,1,0,2.414H4.837a1.207,1.207,0,0,1,0-2.414Z" transform="translate(-1.215 -0.103)" fill="#fff"/>
    </g>
  </g>
</svg>
