<svg xmlns="http://www.w3.org/2000/svg" xmlns:xlink="http://www.w3.org/1999/xlink" width="72" height="72" viewBox="0 0 72 72">
  <defs>
    <clipPath id="clip-path">
      <rect id="Rectangle_644" data-name="Rectangle 644" width="72" height="72" fill="#fff" stroke="#707070" stroke-width="1"/>
    </clipPath>
  </defs>
  <g id="Mask_Group_55" data-name="Mask Group 55" clip-path="url(#clip-path)">
    <g id="books_1_" data-name="books (1)" transform="translate(0.732 0)">
      <path id="Path_350" data-name="Path 350" d="M45.6,1.3H30.431V72.076H45.6Zm-3.792,65.72H34.223a1.264,1.264,0,0,1,0-2.528h7.583a1.264,1.264,0,0,1,0,2.528Zm0-5.055H34.223a1.264,1.264,0,0,1,0-2.528h7.583a1.264,1.264,0,0,1,0,2.528Zm0-48.026H34.223a1.264,1.264,0,0,1,0-2.528h7.583a1.264,1.264,0,1,1,0,2.528Zm0-5.055H34.223a1.264,1.264,0,0,1,0-2.528h7.583a1.264,1.264,0,1,1,0,2.528Zm0,0" transform="translate(-12.737 -0.542)" fill="#fff"/>
      <path id="Path_351" data-name="Path 351" d="M.082,72.076H15.248V1.3H.082ZM3.873,6.356h7.583a1.264,1.264,0,1,1,0,2.528H3.873a1.264,1.264,0,1,1,0-2.528Zm0,5.055h7.583a1.264,1.264,0,1,1,0,2.528H3.873a1.264,1.264,0,1,1,0-2.528Zm0,48.026h7.583a1.264,1.264,0,0,1,0,2.528H3.873a1.264,1.264,0,0,1,0-2.528Zm0,5.055h7.583a1.264,1.264,0,1,1,0,2.528H3.873a1.264,1.264,0,0,1,0-2.528Zm0,0" transform="translate(-0.082 -0.542)" fill="#fff"/>
      <path id="Path_352" data-name="Path 352" d="M65.025,3.927,83.342,72.292l14.65-3.925L79.674,0ZM69.1,9.376A1.264,1.264,0,0,1,70,7.828l7.33-1.961a1.264,1.264,0,1,1,.643,2.441l-7.33,1.962a1.264,1.264,0,0,1-1.547-.894ZM93.914,62.915a1.264,1.264,0,0,1-.894,1.548l-7.33,1.962a1.2,1.2,0,0,1-.328.044,1.264,1.264,0,0,1-.327-2.484l7.33-1.962A1.263,1.263,0,0,1,93.914,62.915ZM83.733,59.1l7.331-1.963a1.264,1.264,0,0,1,.654,2.442l-7.329,1.969a1.264,1.264,0,1,1-.655-2.442ZM80.176,11.642a1.264,1.264,0,0,1-.894,1.548l-7.33,1.963a1.264,1.264,0,0,1-.654-2.442l7.324-1.963a1.264,1.264,0,0,1,1.553.894Zm0,0" transform="translate(-27.163)" fill="#fff"/>
    </g>
  </g>
</svg>
