<svg xmlns="http://www.w3.org/2000/svg" width="117.538" height="95.746" viewBox="0 0 117.538 95.746">
  <g id="husband" transform="translate(0 -47.464)">
    <g id="Group_440" data-name="Group 440" transform="translate(0 89.847)">
      <g id="Group_439" data-name="Group 439">
        <path id="Path_220" data-name="Path 220" d="M50.794,232.083H21.386A21.41,21.41,0,0,0,0,253.469v31.978H58.536V257.14A16.267,16.267,0,0,1,68.85,242.021,21.389,21.389,0,0,0,50.794,232.083Z" transform="translate(0 -232.083)" fill="#fff"/>
      </g>
    </g>
    <g id="Group_442" data-name="Group 442" transform="translate(18.081 47.464)">
      <g id="Group_441" data-name="Group 441" transform="translate(0 0)">
        <path id="Path_221" data-name="Path 221" d="M96.771,47.464a18.009,18.009,0,1,0,18.009,18.009A18.029,18.029,0,0,0,96.771,47.464Z" transform="translate(-78.762 -47.464)" fill="#fff"/>
      </g>
    </g>
    <g id="Group_444" data-name="Group 444" transform="translate(63.177 103.3)">
      <g id="Group_443" data-name="Group 443" transform="translate(0 0)">
        <path id="Path_222" data-name="Path 222" d="M317.959,290.688H286.8a11.616,11.616,0,0,0-11.6,11.6V330.6h54.362V302.291A11.616,11.616,0,0,0,317.959,290.688Z" transform="translate(-275.2 -290.688)" fill="#fff"/>
      </g>
    </g>
    <g id="Group_446" data-name="Group 446" transform="translate(77.064 69.425)">
      <g id="Group_445" data-name="Group 445" transform="translate(0 0)">
        <path id="Path_223" data-name="Path 223" d="M348.987,143.125a13.294,13.294,0,1,0,13.294,13.294A13.309,13.309,0,0,0,348.987,143.125Z" transform="translate(-335.693 -143.125)" fill="#fff"/>
      </g>
    </g>
  </g>
</svg>
