<?xml version="1.0" encoding="utf-8"?>
<!-- Generator: Adobe Illustrator 24.3.0, SVG Export Plug-In . SVG Version: 6.00 Build 0)  -->
<svg version="1.1" baseProfile="tiny" xmlns="http://www.w3.org/2000/svg" xmlns:xlink="http://www.w3.org/1999/xlink" x="0px"
	 y="0px" viewBox="0 0 101.9 24.8" overflow="visible" xml:space="preserve">
<g id="圖層_1" display="none">
	<g display="inline">
		<path fill="none" d="M55.1,14v-1.3l0,0h0h-0.3h-5.2h0c0,0,0,0,0,0V14c0,0-0.1,2.1,2.7,2.2l0,0l0,0C55.2,16.1,55.1,14,55.1,14z"/>
		<path fill="#CCCCCC" d="M54,7.7v2.5h1.7V7.7c0-0.5-0.4-0.8-0.8-0.8C54.3,6.9,54,7.3,54,7.7z"/>
		<path fill="#CCCCCC" d="M49,7.7v2.5h1.7V7.7c0-0.5-0.4-0.8-0.8-0.8C49.4,6.9,49,7.3,49,7.7z"/>
		<path fill="#CCCCCC" d="M56.5,13.6v-0.8h0.4c0.2,0,0.4-0.2,0.4-0.4v-0.8c0-0.2-0.2-0.4-0.4-0.4h-9.1c-0.2,0-0.4,0.2-0.4,0.4v0.8
			c0,0.2,0.2,0.4,0.4,0.4h0.4v0.8c0,2,1.4,3.7,3.3,4.1v2.6h1.7v-2.6C55.1,17.3,56.5,15.6,56.5,13.6z M52.3,16.2L52.3,16.2L52.3,16.2
			c-2.9-0.1-2.8-2.2-2.8-2.2v-1.2c0,0,0,0,0,0h0h5.2h0.3h0l0,0V14C55.1,14,55.2,16.1,52.3,16.2z"/>
	</g>
</g>
<g id="圖層_2">
	<g id="MDen6q.tif">
		<g>
			<path fill="#CCCCCC" d="M46.4,13.5c0-1.3,0-2.6,0-3.9c0-0.2,0.1-0.3,0.3-0.3c0.4,0,0.8,0,1.2,0c0.2,0,0.3,0.1,0.3,0.3
				c0,2.6,0,5.3,0,7.9c0,0.2-0.1,0.3-0.3,0.3c-0.4,0-0.8,0-1.2,0c-0.2,0-0.3-0.1-0.3-0.2C46.4,16.2,46.4,14.9,46.4,13.5
				C46.4,13.5,46.4,13.5,46.4,13.5z"/>
			<path fill="#CCCCCC" d="M54.9,13.5c0,1.3,0,2.6,0,4c0,0.1,0,0.2-0.1,0.2c0,0-0.1,0-0.1,0c-0.4,0-0.8,0-1.2,0
				c-0.2,0-0.3-0.1-0.3-0.3c0-1.9,0-3.8,0-5.7c0-0.8,0-1.5,0-2.3c0-0.2,0.1-0.3,0.3-0.3c0.4,0,0.8,0,1.2,0c0.2,0,0.3,0.1,0.3,0.3
				C54.9,10.9,54.9,12.2,54.9,13.5C54.9,13.5,54.9,13.5,54.9,13.5z"/>
			<path fill="#CCCCCC" d="M56.6,13.5c0-1.3,0-2.6,0-3.9c0,0,0-0.1,0-0.1c0-0.1,0.1-0.2,0.2-0.2c0.4,0,0.9,0,1.3,0
				c0.1,0,0.2,0.1,0.2,0.2c0,0,0,0.1,0,0.1c0,2.6,0,5.3,0,7.9c0,0.1,0,0.2-0.1,0.3c0,0-0.1,0-0.1,0c-0.4,0-0.8,0-1.2,0
				c-0.2,0-0.2-0.1-0.2-0.2c0-0.7,0-1.4,0-2.1C56.6,14.8,56.6,14.1,56.6,13.5z"/>
			<path fill="#CCCCCC" d="M48.9,13.5c0-1.3,0-2.6,0-4c0-0.2,0.1-0.3,0.3-0.3c0.1,0,0.2,0,0.3,0c0.2,0,0.2,0.1,0.2,0.2
				c0,0.2,0,0.5,0,0.7c0,2.4,0,4.8,0,7.2c0,0,0,0.1,0,0.1c0,0.1-0.1,0.2-0.2,0.2c-0.1,0-0.3,0-0.4,0c-0.1,0-0.2-0.1-0.2-0.2
				c0-0.2,0-0.5,0-0.7C48.9,15.7,48.9,14.6,48.9,13.5z"/>
			<path fill="#CCCCCC" d="M51.5,13.5c0,1.3,0,2.6,0,4c0,0.1,0,0.2-0.1,0.2c0,0-0.1,0-0.1,0c-0.1,0-0.2,0-0.3,0
				c-0.2,0-0.3-0.1-0.3-0.3c0-0.8,0-1.5,0-2.3c0-1.9,0-3.8,0-5.6c0,0,0,0,0-0.1c0-0.1,0.1-0.2,0.2-0.2c0.1,0,0.3,0,0.4,0
				c0.2,0,0.2,0.1,0.2,0.2c0,0.5,0,1,0,1.4C51.5,11.8,51.5,12.7,51.5,13.5z"/>
			<path fill="#CCCCCC" d="M43.9,9c0-0.7,0-1.3,0-2c0-0.2,0.1-0.3,0.2-0.3c1.2,0,2.5,0,3.7,0c0.2,0,0.2,0.1,0.3,0.2
				c0,0.1,0,0.2,0,0.3c0,0.2-0.1,0.3-0.3,0.3c-0.3,0-0.5,0-0.8,0c-0.7,0-1.5,0-2.2,0c-0.1,0-0.1,0-0.1,0.1c0,1.1,0,2.1,0,3.2
				c0,0,0,0.1,0,0.1c0,0.1-0.1,0.2-0.2,0.2c-0.1,0-0.3,0-0.4,0c-0.1,0-0.2-0.1-0.2-0.2C43.9,10.3,43.9,9.6,43.9,9z"/>
			<path fill="#CCCCCC" d="M60.8,9c0,0.7,0,1.3,0,2c0,0.2-0.1,0.2-0.2,0.2c-0.1,0-0.2,0-0.3,0c-0.2,0-0.2-0.1-0.2-0.3
				c0-0.5,0-1,0-1.5c0-0.6,0-1.2,0-1.7c0-0.1,0-0.1-0.1-0.1c-1,0-2,0-3,0c0,0-0.1,0-0.1,0c-0.1,0-0.2-0.1-0.2-0.2c0-0.1,0-0.3,0-0.4
				c0-0.1,0.1-0.2,0.2-0.2c0,0,0.1,0,0.1,0c1.2,0,2.5,0,3.7,0c0,0,0,0,0,0c0.2,0,0.2,0.1,0.2,0.2C60.8,7.7,60.8,8.3,60.8,9z"/>
			<path fill="#CCCCCC" d="M43.9,18.1c0-0.7,0-1.3,0-2c0-0.2,0.1-0.2,0.2-0.2c0.1,0,0.2,0,0.3,0c0.2,0,0.3,0.1,0.3,0.3
				c0,1.1,0,2.1,0,3.2c0,0.2,0,0.1,0.1,0.1c1,0,2,0,3,0c0.2,0,0.3,0.1,0.3,0.3c0,0.1,0,0.2,0,0.3c0,0.1-0.1,0.2-0.2,0.2
				c-1.3,0-2.5,0-3.8,0c-0.1,0-0.2-0.1-0.2-0.2C43.9,19.4,43.9,18.7,43.9,18.1z"/>
			<path fill="#CCCCCC" d="M60.8,18.1c0,0.7,0,1.3,0,2c0,0.2-0.1,0.2-0.2,0.2c-1.2,0-2.5,0-3.7,0c-0.2,0-0.2-0.1-0.3-0.2
				c0-0.1,0-0.2,0-0.4c0-0.2,0.1-0.2,0.2-0.2c1,0,2,0,3,0c0.2,0,0.2,0,0.2-0.2c0-1.1,0-2.1,0-3.2c0-0.1,0-0.1,0-0.2
				c0-0.1,0.1-0.1,0.2-0.1c0.1,0,0.3,0,0.4,0c0.1,0,0.2,0.1,0.2,0.2C60.8,16.8,60.8,17.4,60.8,18.1z"/>
		</g>
	</g>
</g>
</svg>
