<?xml version="1.0" encoding="utf-8"?>
<!-- Generator: Adobe Illustrator 24.3.0, SVG Export Plug-In . SVG Version: 6.00 Build 0)  -->
<svg version="1.1" baseProfile="tiny" id="圖層_1"
	 xmlns="http://www.w3.org/2000/svg" xmlns:xlink="http://www.w3.org/1999/xlink" x="0px" y="0px" viewBox="0 0 101.9 24.8"
	 overflow="visible" xml:space="preserve">
<g>
	<path fill="none" d="M55.1,14v-1.3l0,0h0h-0.3h-5.2h0c0,0,0,0,0,0V14c0,0-0.1,2.1,2.7,2.2l0,0l0,0C55.2,16.1,55.1,14,55.1,14z"/>
	<path fill="#CCCCCC" d="M54,7.7v2.5h1.7V7.7c0-0.5-0.4-0.8-0.8-0.8C54.3,6.9,54,7.3,54,7.7z"/>
	<path fill="#CCCCCC" d="M49,7.7v2.5h1.7V7.7c0-0.5-0.4-0.8-0.8-0.8C49.4,6.9,49,7.3,49,7.7z"/>
	<path fill="#CCCCCC" d="M56.5,13.6v-0.8h0.4c0.2,0,0.4-0.2,0.4-0.4v-0.8c0-0.2-0.2-0.4-0.4-0.4h-9.1c-0.2,0-0.4,0.2-0.4,0.4v0.8
		c0,0.2,0.2,0.4,0.4,0.4h0.4v0.8c0,2,1.4,3.7,3.3,4.1v2.6h1.7v-2.6C55.1,17.3,56.5,15.6,56.5,13.6z M52.3,16.2L52.3,16.2L52.3,16.2
		c-2.9-0.1-2.8-2.2-2.8-2.2v-1.2c0,0,0,0,0,0h0h5.2h0.3h0l0,0V14C55.1,14,55.2,16.1,52.3,16.2z"/>
</g>
</svg>
