<svg xmlns="http://www.w3.org/2000/svg" width="33.082" height="44.997" viewBox="0 0 33.082 44.997">
  <g id="Group_479" data-name="Group 479" transform="translate(0 0)">
    <g id="Group_478" data-name="Group 478" transform="translate(0 0)">
      <g id="Group_477" data-name="Group 477">
        <path id="Path_310" data-name="Path 310" d="M9962.768-380.771c0-5.446-3.149-11.38-3.149-11.38-1.22-2.444-2.6-5.214-5.564-6.847-.055-.03-.339-.169-.432-.213l-3.217-1.481-1.545-1.3-2.483,2.47,1.022,7.367-1.165.322-1.167-.322,1.023-7.367-2.483-2.47-1.545,1.3-3.218,1.481c-.094.044-.376.183-.431.213-2.962,1.633-4.346,4.4-5.566,6.847a36.473,36.473,0,0,0-3.148,11.38c-.006.064-.007.128-.007.193a3.33,3.33,0,0,0,3.425,3.221,2.719,2.719,0,0,0,.412-.032,8.042,8.042,0,0,0,2.515-.837l9.868,2.721c.024.007.049.012.073.017l.012,0c.021,0,.04.009.056.011a1.208,1.208,0,0,0,.182.014,1.144,1.144,0,0,0,.174-.014.638.638,0,0,0,.071-.013c.025,0,.052-.01.076-.017l9.868-2.722a8.008,8.008,0,0,0,2.515.837,2.665,2.665,0,0,0,.411.032,3.331,3.331,0,0,0,3.425-3.22C9962.774-380.642,9962.768-380.706,9962.768-380.771Zm-17.746,2.506-6.436-1.775a2.708,2.708,0,0,0,.051-3.3,2.7,2.7,0,0,0-1.428-.986v-7.489l7.813,2.154v11.392Zm10.237-6.056a2.692,2.692,0,0,0-1.428.986,2.708,2.708,0,0,0,.049,3.3l-6.434,1.775v-11.391l7.813-2.155v7.489Z" transform="translate(-9929.692 420.457)" fill="#fff"/>
        <path id="Path_311" data-name="Path 311" d="M10014.737-545.059c3.255,0,7.625-4.069,7.7-10.893.048-4.735-2.207-7.569-7.7-7.569s-7.75,2.834-7.7,7.569C10007.108-549.128,10010.924-545.059,10014.737-545.059Zm-1.55-8.991c3.983.424,7.454-5.145,7.4-.159-.034,2.985-2.8,7.493-5.849,7.493-3.2,0-5.4-3.746-5.851-7.491C10008.4-558.269,10015.858-557.343,10013.188-554.05Z" transform="translate(-9998.195 563.521)" fill="#fff"/>
      </g>
    </g>
  </g>
</svg>
