<?xml version="1.0" encoding="utf-8"?>
<!-- Generator: Adobe Illustrator 23.1.1, SVG Export Plug-In . SVG Version: 6.00 Build 0)  -->
<svg version="1.1" id="圖層_1" xmlns="http://www.w3.org/2000/svg" xmlns:xlink="http://www.w3.org/1999/xlink" x="0px" y="0px"
	 viewBox="0 0 12 12" style="enable-background:new 0 0 12 12;" xml:space="preserve">
<style type="text/css">
	.st0{fill:#FFFFFF;}
</style>
<g>
	<g>
		<path class="st0" d="M11.9,6.8c-0.2-2.1-2.1-3.7-4.2-3.7H4.5V1.2c0-0.1-0.1-0.3-0.2-0.3c-0.1-0.1-0.3,0-0.4,0l-3.7,3
			C0.1,4,0.1,4.1,0.1,4.2s0.1,0.2,0.1,0.3l3.7,3C4,7.5,4.1,7.5,4.1,7.5c0.1,0,0.1,0,0.2,0c0.1-0.1,0.2-0.2,0.2-0.3V5.3h3.2
			c1,0,1.9,0.7,2,1.7c0.1,1.1-0.8,2-1.8,2h-3C4.7,9,4.5,9.2,4.5,9.4v1.5c0,0.2,0.2,0.4,0.4,0.4h3C10.2,11.2,12.2,9.2,11.9,6.8z"/>
	</g>
</g>
</svg>
