<svg id="Layer_1" data-name="Layer 1" xmlns="http://www.w3.org/2000/svg" viewBox="0 0 15.77 12.75"><defs><style>.cls-1{fill:#19a597;}</style></defs><title>building</title><path class="cls-1" d="M4.38,14.45H7.17V11.61H8.84v2.84h2.79V1.7H4.38ZM8.51,3.21h1.68V4.88H8.51Zm0,2.69h1.68V7.57H8.51Zm0,2.69h1.68v1.67H8.51ZM5.82,3.21H7.5V4.88H5.82Zm0,2.69H7.5V7.57H5.82Zm0,2.69H7.5v1.67H5.82Z" transform="translate(-0.12 -1.7)"/><path class="cls-1" d="M12.28,2.84v9h1.08v2.59h2.53V2.84Zm2.3,7.8H13.06V9.11h1.52v1.53Zm0-2.45H13.06V6.66h1.52V8.19Zm0-2.45H13.06V4.21h1.52V5.74Z" transform="translate(-0.12 -1.7)"/><path class="cls-1" d="M.12,14.45H2.66V11.86H3.73v-9H.12ZM1.43,4.21H3V5.74H1.43Zm0,2.45H3V8.19H1.43Zm0,2.45H3v1.53H1.43Z" transform="translate(-0.12 -1.7)"/></svg>