<svg xmlns="http://www.w3.org/2000/svg" xmlns:xlink="http://www.w3.org/1999/xlink" width="12" height="12" viewBox="0 0 12 12">
  <defs>
    <clipPath id="clip-path">
      <rect id="Rectangle_19" data-name="Rectangle 19" width="12" height="12" transform="translate(1072 232)" fill="#fff" stroke="#707070" stroke-width="1"/>
    </clipPath>
  </defs>
  <g id="Mask_Group_3" data-name="Mask Group 3" transform="translate(-1072 -232)" clip-path="url(#clip-path)">
    <g id="close" transform="translate(1072 232)">
      <g id="Group_1" data-name="Group 1" transform="translate(0 0)">
        <path id="Path_3" data-name="Path 3" d="M7.322,6l4.487-4.487a.658.658,0,0,0,0-.928L11.415.192a.658.658,0,0,0-.928,0L6,4.679,1.513.192a.658.658,0,0,0-.928,0L.192.585a.657.657,0,0,0,0,.928L4.679,6,.192,10.487a.658.658,0,0,0,0,.928l.393.393a.658.658,0,0,0,.928,0L6,7.322l4.487,4.487a.651.651,0,0,0,.464.192h0a.651.651,0,0,0,.464-.192l.393-.393a.658.658,0,0,0,0-.928Z" transform="translate(0 -0.001)" fill="#fff"/>
      </g>
    </g>
  </g>
</svg>
