<svg id="Layer_1" data-name="Layer 1" xmlns="http://www.w3.org/2000/svg" viewBox="0 0 15.88 11.91"><defs><style>.cls-1{fill:#19a597;}</style></defs><title>mail</title><path class="cls-1" d="M.35,3.27c2.18,1.85,6,5.1,7.13,6.11a.65.65,0,0,0,1,0c1.13-1,5-4.26,7.13-6.11a.32.32,0,0,0,0-.45,1.29,1.29,0,0,0-1-.51H1.34a1.32,1.32,0,0,0-1,.51A.33.33,0,0,0,.35,3.27Z" transform="translate(-0.02 -2.31)"/><path class="cls-1" d="M15.71,4.28a.32.32,0,0,0-.35,0C12.94,6.37,9.86,9,8.89,9.87A1.33,1.33,0,0,1,7,9.87C6,8.94,2.54,6,.56,4.32a.32.32,0,0,0-.35,0,.32.32,0,0,0-.19.3V12.9a1.32,1.32,0,0,0,1.32,1.32H14.58A1.32,1.32,0,0,0,15.9,12.9V4.58A.32.32,0,0,0,15.71,4.28Z" transform="translate(-0.02 -2.31)"/></svg>