<svg xmlns="http://www.w3.org/2000/svg" width="16" height="14.609" viewBox="0 0 16 14.609">
  <g id="Group_38" data-name="Group 38" transform="translate(-411 -70.696)">
    <g id="api" transform="translate(411 70)">
      <g id="Group_25" data-name="Group 25">
        <g id="Group_24" data-name="Group 24">
          <path id="Path_3" data-name="Path 3" d="M3.826,5.565H2.435A1.045,1.045,0,0,0,1.391,6.609v3.478a.348.348,0,0,0,.7,0V9.044H4.174v1.043a.348.348,0,0,0,.7,0V6.609A1.045,1.045,0,0,0,3.826,5.565Zm.348,2.783H2.087V6.609a.348.348,0,0,1,.348-.348H3.826a.348.348,0,0,1,.348.348Z" fill="#707070"/>
        </g>
      </g>
      <g id="Group_27" data-name="Group 27">
        <g id="Group_26" data-name="Group 26">
          <path id="Path_4" data-name="Path 4" d="M8.348,5.565H6.957a.348.348,0,0,0-.348.348v4.174a.348.348,0,0,0,.7,0V9.044H8.348a1.739,1.739,0,1,0,0-3.478Zm0,2.783H7.3V6.261H8.348a1.043,1.043,0,1,1,0,2.087Z" fill="#707070"/>
        </g>
      </g>
      <g id="Group_29" data-name="Group 29">
        <g id="Group_28" data-name="Group 28">
          <path id="Path_5" data-name="Path 5" d="M14.261,9.739H13.217V6.261h1.043a.348.348,0,0,0,0-.7H11.478a.348.348,0,0,0,0,.7h1.043V9.739H11.478a.348.348,0,1,0,0,.7h2.783a.348.348,0,0,0,0-.7Z" fill="#707070"/>
        </g>
      </g>
      <g id="Group_31" data-name="Group 31">
        <g id="Group_30" data-name="Group 30">
          <path id="Path_6" data-name="Path 6" d="M14.957,2.087H9.535L8.246.8a.347.347,0,0,0-.492,0L6.465,2.087H1.043A1.045,1.045,0,0,0,0,3.13V4.174a.348.348,0,1,0,.7,0V3.13a.348.348,0,0,1,.348-.348H6.609a.346.346,0,0,0,.246-.1L8,1.535,9.145,2.681a.346.346,0,0,0,.246.1h5.565a.348.348,0,0,1,.348.348V4.174a.348.348,0,1,0,.7,0V3.13A1.045,1.045,0,0,0,14.957,2.087Z" fill="#707070"/>
        </g>
      </g>
      <g id="Group_33" data-name="Group 33">
        <g id="Group_32" data-name="Group 32">
          <path id="Path_7" data-name="Path 7" d="M15.652,11.478a.348.348,0,0,0-.348.348V12.87a.348.348,0,0,1-.348.348H9.391a.346.346,0,0,0-.246.1L8,14.465,6.855,13.319a.346.346,0,0,0-.246-.1H1.043A.348.348,0,0,1,.7,12.87V11.826a.348.348,0,0,0-.7,0V12.87a1.045,1.045,0,0,0,1.043,1.043H6.465L7.754,15.2a.348.348,0,0,0,.492,0l1.289-1.289h5.421A1.045,1.045,0,0,0,16,12.87V11.826A.348.348,0,0,0,15.652,11.478Z" fill="#707070"/>
        </g>
      </g>
    </g>
  </g>
</svg>
