<svg xmlns="http://www.w3.org/2000/svg" width="16" height="16" viewBox="0 0 16 16">
  <g id="Group_36" data-name="Group 36" transform="translate(-140 -70)">
    <g id="statistics" transform="translate(140 70)">
      <path id="Path_12" data-name="Path 12" d="M2.375,7.5a1.4,1.4,0,0,0,.975-.395l1.38.69a1.406,1.406,0,1,0,2.664-.432L9.269,5.488A1.406,1.406,0,0,0,11.217,3.8l1.629-1.222a1.4,1.4,0,1,0-.563-.75L10.654,3.049A1.406,1.406,0,0,0,8.606,4.825L6.731,6.7a1.4,1.4,0,0,0-1.581.257l-1.38-.69A1.406,1.406,0,1,0,2.375,7.5ZM13.625.938a.469.469,0,1,1-.469.469A.469.469,0,0,1,13.625.938ZM9.875,3.75a.469.469,0,1,1-.469.469A.469.469,0,0,1,9.875,3.75ZM6.125,7.5a.469.469,0,1,1-.469.469A.469.469,0,0,1,6.125,7.5ZM2.375,5.625a.469.469,0,1,1-.469.469A.469.469,0,0,1,2.375,5.625Zm0,0" fill="#717171"/>
      <path id="Path_13" data-name="Path 13" d="M15.531,15.063h-.5V5.156a.469.469,0,0,0-.469-.469H12.688a.469.469,0,0,0-.469.469v9.906h-.937V7.969a.469.469,0,0,0-.469-.469H8.938a.469.469,0,0,0-.469.469v7.094H7.531V11.719a.469.469,0,0,0-.469-.469H5.188a.469.469,0,0,0-.469.469v3.344H3.781V9.844a.469.469,0,0,0-.469-.469H1.438a.469.469,0,0,0-.469.469v5.219h-.5a.469.469,0,0,0,0,.938H15.531a.469.469,0,0,0,0-.937ZM13.156,5.625h.938v9.438h-.937ZM9.406,8.438h.938v6.625H9.406Zm-3.75,3.75h.938v2.875H5.656Zm-3.75-1.875h.938v4.75H1.906Zm0,0" fill="#717171"/>
    </g>
  </g>
</svg>
