<svg xmlns="http://www.w3.org/2000/svg" width="16" height="16" viewBox="0 0 16 16">
  <g id="Group_39" data-name="Group 39" transform="translate(-535 -70)">
    <g id="settings_5_" data-name="settings (5)" transform="translate(535 70)">
      <path id="Path_1" data-name="Path 1" d="M8.5,16h-1a1.475,1.475,0,0,1-1.473-1.473v-.34a6.459,6.459,0,0,1-1-.416l-.241.241a1.473,1.473,0,0,1-2.083,0l-.71-.71a1.473,1.473,0,0,1,0-2.083l.241-.241a6.46,6.46,0,0,1-.416-1h-.34A1.475,1.475,0,0,1,0,8.5v-1A1.475,1.475,0,0,1,1.473,6.025h.34a6.461,6.461,0,0,1,.416-1l-.241-.241a1.473,1.473,0,0,1,0-2.083l.71-.71a1.473,1.473,0,0,1,2.083,0l.241.241a6.465,6.465,0,0,1,1-.416v-.34A1.475,1.475,0,0,1,7.5,0h1A1.475,1.475,0,0,1,9.975,1.473v.34a6.459,6.459,0,0,1,1,.416l.241-.241a1.473,1.473,0,0,1,2.083,0l.71.71a1.473,1.473,0,0,1,0,2.083l-.241.241a6.46,6.46,0,0,1,.416,1h.34A1.475,1.475,0,0,1,16,7.5v1a1.475,1.475,0,0,1-1.473,1.473h-.34a6.461,6.461,0,0,1-.416,1l.241.241a1.473,1.473,0,0,1,0,2.083l-.71.71a1.473,1.473,0,0,1-2.083,0l-.241-.241a6.465,6.465,0,0,1-1,.416v.34A1.475,1.475,0,0,1,8.5,16ZM5.179,12.787a5.525,5.525,0,0,0,1.432.595.469.469,0,0,1,.352.454v.692a.536.536,0,0,0,.535.535h1a.536.536,0,0,0,.535-.535v-.692a.469.469,0,0,1,.352-.454,5.525,5.525,0,0,0,1.432-.595.469.469,0,0,1,.57.072l.49.49a.535.535,0,0,0,.757,0l.71-.71a.535.535,0,0,0,0-.757l-.49-.49a.469.469,0,0,1-.072-.57,5.524,5.524,0,0,0,.594-1.432.469.469,0,0,1,.454-.352h.692a.536.536,0,0,0,.535-.535v-1a.536.536,0,0,0-.535-.535h-.692a.469.469,0,0,1-.454-.352,5.525,5.525,0,0,0-.594-1.432.469.469,0,0,1,.072-.57l.49-.49a.535.535,0,0,0,0-.757l-.71-.71a.535.535,0,0,0-.757,0l-.49.49a.469.469,0,0,1-.57.072,5.525,5.525,0,0,0-1.432-.595.469.469,0,0,1-.352-.454V1.473A.536.536,0,0,0,8.5.937h-1a.536.536,0,0,0-.535.535v.692a.469.469,0,0,1-.352.454,5.525,5.525,0,0,0-1.432.595.469.469,0,0,1-.57-.072l-.49-.49a.535.535,0,0,0-.757,0l-.71.71a.535.535,0,0,0,0,.757l.49.49a.469.469,0,0,1,.072.57,5.524,5.524,0,0,0-.595,1.432.469.469,0,0,1-.454.352H1.473A.536.536,0,0,0,.937,7.5v1a.536.536,0,0,0,.535.535h.692a.469.469,0,0,1,.454.352,5.525,5.525,0,0,0,.595,1.432.469.469,0,0,1-.072.57l-.49.49a.535.535,0,0,0,0,.757l.71.71a.535.535,0,0,0,.757,0l.49-.49a.471.471,0,0,1,.57-.072Z" fill="#707070"/>
      <path id="Path_2" data-name="Path 2" d="M8,11.481A3.481,3.481,0,1,1,11.481,8,3.485,3.485,0,0,1,8,11.481ZM8,5.456A2.544,2.544,0,1,0,10.544,8,2.547,2.547,0,0,0,8,5.456Z" fill="#707070"/>
    </g>
  </g>
</svg>
