<svg xmlns="http://www.w3.org/2000/svg" width="16" height="16" viewBox="0 0 16 16">
  <g id="Group_37" data-name="Group 37" transform="translate(-286 -70)">
    <g id="list_3_" data-name="list (3)" transform="translate(286 70)">
      <g id="Group_35" data-name="Group 35">
        <g id="Group_34" data-name="Group 34">
          <path id="Path_8" data-name="Path 8" d="M12.5,0h-9A3.5,3.5,0,0,0,0,3.5v9A3.5,3.5,0,0,0,3.5,16h9A3.5,3.5,0,0,0,16,12.5v-9A3.5,3.5,0,0,0,12.5,0ZM15,12.5A2.5,2.5,0,0,1,12.5,15h-9A2.5,2.5,0,0,1,1,12.5v-9A2.5,2.5,0,0,1,3.5,1h9A2.5,2.5,0,0,1,15,3.5Z" fill="#717171"/>
          <path id="Path_9" data-name="Path 9" d="M5,3.5H4a.5.5,0,0,0-.5.5V5a.5.5,0,0,0,.5.5H5A.5.5,0,0,0,5.5,5V4A.5.5,0,0,0,5,3.5Z" fill="#717171"/>
          <path id="Path_10" data-name="Path 10" d="M5,7H4a.5.5,0,0,0-.5.5v1A.5.5,0,0,0,4,9H5a.5.5,0,0,0,.5-.5v-1A.5.5,0,0,0,5,7Z" fill="#717171"/>
          <path id="Path_11" data-name="Path 11" d="M5,10.5H4a.5.5,0,0,0-.5.5v1a.5.5,0,0,0,.5.5H5a.5.5,0,0,0,.5-.5V11A.5.5,0,0,0,5,10.5Z" fill="#717171"/>
          <rect id="Rectangle_27" data-name="Rectangle 27" width="6" height="1" transform="translate(6.5 4)" fill="#717171"/>
          <rect id="Rectangle_28" data-name="Rectangle 28" width="6" height="1" transform="translate(6.5 7.5)" fill="#717171"/>
          <rect id="Rectangle_29" data-name="Rectangle 29" width="6" height="1" transform="translate(6.5 11)" fill="#717171"/>
        </g>
      </g>
    </g>
  </g>
</svg>
