<svg id="Layer_1" data-name="Layer 1" xmlns="http://www.w3.org/2000/svg" viewBox="0 0 15.86 15.86"><defs><style>.cls-1{fill:#19a597;}</style></defs><title>telephone</title><path class="cls-1" d="M15.64,12.7l-1.76-1.18-1.57-1a.7.7,0,0,0-.93.15l-1,1.25a.69.69,0,0,1-.88.18A11.38,11.38,0,0,1,6.39,9.63,11.34,11.34,0,0,1,4,6.49a.69.69,0,0,1,.18-.88l1.25-1a.7.7,0,0,0,.15-.93l-1-1.51L3.33.39A.69.69,0,0,0,2.4.18L1,1A1.7,1.7,0,0,0,.24,2C-.14,3.4-.22,6.45,4.68,11.35s8,4.82,9.33,4.44A1.72,1.72,0,0,0,15,15l.84-1.39A.7.7,0,0,0,15.64,12.7Z" transform="translate(-0.08 -0.08)"/><path class="cls-1" d="M9.11,2.54a4.67,4.67,0,0,1,4.65,4.65.27.27,0,1,0,.54,0A5.19,5.19,0,0,0,9.11,2a.27.27,0,1,0,0,.54Z" transform="translate(-0.08 -0.08)"/><path class="cls-1" d="M9.11,4.19a3,3,0,0,1,3,3,.27.27,0,1,0,.54,0A3.55,3.55,0,0,0,9.11,3.64a.28.28,0,0,0-.28.27A.29.29,0,0,0,9.11,4.19Z" transform="translate(-0.08 -0.08)"/><path class="cls-1" d="M9.11,5.83a1.36,1.36,0,0,1,1.36,1.36.29.29,0,0,0,.28.28A.28.28,0,0,0,11,7.19,1.92,1.92,0,0,0,9.11,5.28a.28.28,0,0,0-.28.27A.29.29,0,0,0,9.11,5.83Z" transform="translate(-0.08 -0.08)"/></svg>