<svg id="Layer_1" data-name="Layer 1" xmlns="http://www.w3.org/2000/svg" viewBox="0 0 15.81 14.49"><defs><style>.cls-1{fill:#19a597;}</style></defs><title>telephone</title><path class="cls-1" d="M15.62,3.87a10.42,10.42,0,0,0-15.27,0,1,1,0,0,0,0,1.37L1.87,6.83a.94.94,0,0,0,1.35,0,6.68,6.68,0,0,1,1.71-1.3,1,1,0,0,0,.52-.83L5.68,3A6.79,6.79,0,0,1,10.3,3l.22,1.69a1,1,0,0,0,.51.87,6.38,6.38,0,0,1,1.72,1.31.93.93,0,0,0,1.35,0l1.52-1.6A1,1,0,0,0,15.62,3.87Z" transform="translate(-0.08 -0.54)"/><path class="cls-1" d="M12.27,6.68a1.64,1.64,0,0,0-1.45-.87H5.15a1.67,1.67,0,0,0-1.45.87l-2.11,4a1.72,1.72,0,0,0-.19.77v2.31A1.32,1.32,0,0,0,2.72,15H13.26a1.31,1.31,0,0,0,1.31-1.31V11.41a1.6,1.6,0,0,0-.19-.77ZM6,13.06a.66.66,0,1,1,.66-.66A.67.67,0,0,1,6,13.06Zm0-2a.66.66,0,1,1,.66-.66A.66.66,0,0,1,6,11.08Zm0-2a.66.66,0,1,1,.66-.66A.67.67,0,0,1,6,9.11Zm2,4a.66.66,0,1,1,.66-.66A.66.66,0,0,1,8,13.06Zm0-2a.66.66,0,1,1,.66-.66A.65.65,0,0,1,8,11.08Zm0-2a.66.66,0,1,1,.66-.66A.66.66,0,0,1,8,9.11Zm2,4a.66.66,0,1,1,.66-.66A.67.67,0,0,1,10,13.06Zm0-2a.66.66,0,1,1,0-1.31.66.66,0,1,1,0,1.31Zm0-2a.66.66,0,0,1,0-1.32.66.66,0,0,1,0,1.32Z" transform="translate(-0.08 -0.54)"/></svg>