<svg xmlns="http://www.w3.org/2000/svg" width="24" height="24" fill="none" viewBox="0 0 24 24">
    <path fill="#FF9B3F" fill-rule="evenodd" d="M8.106 8.447c-.17-.339-.133-.744.094-1.047l3-4c.189-.252.485-.4.8-.4.315 0 .611.148.8.4l3 4c.227.303.264.708.094 1.047C15.725 8.786 15.38 9 15 9h-2v7c0 .552-.448 1-1 1s-1-.448-1-1V9H9c-.379 0-.725-.214-.894-.553z" clip-rule="evenodd"/>
    <path stroke="#FF9B3F" stroke-linecap="round" stroke-linejoin="round" stroke-width="2" d="M5 10.5V21h15V8.5L17.321 6"/>
</svg>
