<svg xmlns="http://www.w3.org/2000/svg" width="24" height="24" fill="none" viewBox="0 0 24 24">
    <circle cx="12" cy="12" r="10" fill="#A3A3A3"/>
    <path fill="#fff" fill-rule="evenodd" d="M7.757 7.757c.335-.334.878-.334 1.212 0l3.03 3.03 3.031-3.03c.335-.334.878-.334 1.213 0 .334.335.334.878 0 1.213L13.213 12l3.03 3.03c.334.335.334.878 0 1.213-.335.334-.878.334-1.213 0L12 13.213l-3.03 3.03c-.335.334-.878.334-1.213 0-.334-.335-.334-.878 0-1.212L10.787 12l-3.03-3.03c-.334-.335-.334-.878 0-1.213z" clip-rule="evenodd"/>
</svg>
